# xmcd CD database file
#
# Track frame offsets:
#	150
#	32285
#	52842
#	86565
#	120165
#	137557
#	164377
#	190330
#	213807
#	238217
#	265665
#
# Disc length: 3812 seconds
#
# Revision: 1
# Processed by: cddbd v1.5PL3 Copyright (c) Steve Scherf et al.
# Submitted via: CDex 1.51
#
DISCID=840ee20b
DTITLE=Svend Asmussen - Fit as a fiddle
DYEAR=1997
DGENRE=Jazz
TTITLE0=Running wild
TTITLE1=Bye bye blackbird
TTITLE2=Take off blues
TTITLE3=I loves you Porgy
TTITLE4=Wrapping it up
TTITLE5=Groove merchant
TTITLE6=Latino
TTITLE7=Columbine polka mazurka
TTITLE8=The mooche
TTITLE9=Prelude to a kiss
TTITLE10=A night in Tunisai
EXTD=YEAR: 1997
EXTT0=
EXTT1=
EXTT2=
EXTT3=
EXTT4=
EXTT5=
EXTT6=
EXTT7=
EXTT8=
EXTT9=
EXTT10=
PLAYORDER=
